<svg xmlns="http://www.w3.org/2000/svg" viewBox="0 0 500 160" width="100%" height="100%">
  <rect x="10" y="10" width="460" height="135" fill="none" stroke="black" stroke-width="1"/>
  <line x1="10" y1="37" x2="470" y2="37" stroke="black"/>
  <line x1="10" y1="64" x2="470" y2="64" stroke="black"/>
  <line x1="10" y1="91" x2="470" y2="91" stroke="black"/>
  <line x1="10" y1="118" x2="470" y2="118" stroke="black"/>
  <line x1="90" y1="10" x2="90" y2="145" stroke="black"/>
  <line x1="270" y1="10" x2="270" y2="145" stroke="black"/>
  <line x1="390" y1="10" x2="390" y2="145" stroke="black"/>
  
  <text x="35" y="28" font-family="sans-serif" font-size="12" font-weight="bold">Solution</text>
  <text x="145" y="28" font-family="sans-serif" font-size="12">Dissociation constant (Ka)</text>
  <text x="295" y="28" font-family="sans-serif" font-size="12">Molarity (mol dm⁻³)</text>
  <text x="415" y="28" font-family="sans-serif" font-size="12">Option</text>

  <text x="45" y="55" font-family="sans-serif" font-size="14">A</text>
  <text x="130" y="55" font-family="sans-serif" font-size="14">3.9 × 10⁻⁴</text>
  <text x="305" y="55" font-family="sans-serif" font-size="14">0.0012</text>
  <text x="425" y="55" font-family="sans-serif" font-size="14" font-weight="bold">A</text>

  <text x="45" y="82" font-family="sans-serif" font-size="14">B</text>
  <text x="130" y="82" font-family="sans-serif" font-size="14">1.5 × 10⁻⁴</text>
  <text x="305" y="82" font-family="sans-serif" font-size="14">0.0020</text>
  <text x="425" y="82" font-family="sans-serif" font-size="14" font-weight="bold">B</text>

  <text x="45" y="109" font-family="sans-serif" font-size="14">C</text>
  <text x="130" y="109" font-family="sans-serif" font-size="14">2.1 × 10⁻⁵</text>
  <text x="305" y="109" font-family="sans-serif" font-size="14">0.10</text>
  <text x="425" y="109" font-family="sans-serif" font-size="14" font-weight="bold">C</text>

  <text x="45" y="136" font-family="sans-serif" font-size="14">D</text>
  <text x="130" y="136" font-family="sans-serif" font-size="14">7.4 × 10⁻⁴</text>
  <text x="305" y="136" font-family="sans-serif" font-size="14">0.015</text>
  <text x="425" y="136" font-family="sans-serif" font-size="14" font-weight="bold">D</text>
</svg>