<svg xmlns="http://www.w3.org/2000/svg" viewBox="0 0 500 160" width="100%" height="100%">
  <rect x="10" y="10" width="460" height="135" fill="none" stroke="black" stroke-width="1"/>
  <line x1="10" y1="37" x2="470" y2="37" stroke="black"/>
  <line x1="10" y1="64" x2="470" y2="64" stroke="black"/>
  <line x1="10" y1="91" x2="470" y2="91" stroke="black"/>
  <line x1="10" y1="118" x2="470" y2="118" stroke="black"/>
  <line x1="60" y1="10" x2="60" y2="145" stroke="black"/>
  <line x1="120" y1="10" x2="120" y2="145" stroke="black"/>
  <line x1="190" y1="10" x2="190" y2="145" stroke="black"/>
  <line x1="260" y1="10" x2="260" y2="145" stroke="black"/>
  <line x1="330" y1="10" x2="330" y2="145" stroke="black"/>
  <line x1="400" y1="10" x2="400" y2="145" stroke="black"/>
  
  <text x="25" y="28" font-family="sans-serif" font-size="12" font-weight="bold">Set</text>
  <text x="80" y="28" font-family="sans-serif" font-size="12" font-weight="bold">a</text>
  <text x="150" y="28" font-family="sans-serif" font-size="12" font-weight="bold">b</text>
  <text x="220" y="28" font-family="sans-serif" font-size="12" font-weight="bold">c</text>
  <text x="290" y="28" font-family="sans-serif" font-size="12" font-weight="bold">d</text>
  <text x="360" y="28" font-family="sans-serif" font-size="12" font-weight="bold">e</text>
  <text x="425" y="28" font-family="sans-serif" font-size="12" font-weight="bold">Option</text>

  <text x="30" y="55" font-family="sans-serif" font-size="14">A</text>
  <text x="80" y="55" font-family="sans-serif" font-size="14">1</text>
  <text x="145" y="55" font-family="sans-serif" font-size="14">10</text>
  <text x="215" y="55" font-family="sans-serif" font-size="14">1</text>
  <text x="285" y="55" font-family="sans-serif" font-size="14">2</text>
  <text x="355" y="55" font-family="sans-serif" font-size="14">3</text>
  <text x="430" y="55" font-family="sans-serif" font-size="14" font-weight="bold">A</text>

  <text x="30" y="82" font-family="sans-serif" font-size="14">B</text>
  <text x="80" y="82" font-family="sans-serif" font-size="14">10</text>
  <text x="145" y="82" font-family="sans-serif" font-size="14">1</text>
  <text x="215" y="82" font-family="sans-serif" font-size="14">10</text>
  <text x="285" y="82" font-family="sans-serif" font-size="14">2</text>
  <text x="355" y="82" font-family="sans-serif" font-size="14">4</text>
  <text x="430" y="82" font-family="sans-serif" font-size="14" font-weight="bold">B</text>

  <text x="30" y="109" font-family="sans-serif" font-size="14">C</text>
  <text x="80" y="109" font-family="sans-serif" font-size="14">8</text>
  <text x="145" y="109" font-family="sans-serif" font-size="14">3</text>
  <text x="215" y="109" font-family="sans-serif" font-size="14">8</text>
  <text x="285" y="109" font-family="sans-serif" font-size="14">3</text>
  <text x="355" y="109" font-family="sans-serif" font-size="14">12</text>
  <text x="430" y="109" font-family="sans-serif" font-size="14" font-weight="bold">C</text>

  <text x="30" y="136" font-family="sans-serif" font-size="14">D</text>
  <text x="80" y="136" font-family="sans-serif" font-size="14">3</text>
  <text x="145" y="136" font-family="sans-serif" font-size="14">8</text>
  <text x="215" y="136" font-family="sans-serif" font-size="14">3</text>
  <text x="285" y="136" font-family="sans-serif" font-size="14">8</text>
  <text x="355" y="136" font-family="sans-serif" font-size="14">12</text>
  <text x="430" y="136" font-family="sans-serif" font-size="14" font-weight="bold">D</text>
</svg>